<?xml version="1.0" encoding="UTF-8" standalone="no"?>
<svg
  xmlns="http://www.w3.org/2000/svg"
  viewBox="0 0 640 640">
  <defs>
    <linearGradient id="grad1" x1="0%" y1="0%" x2="100%" y2="10%">
      <stop offset="0%" style="stop-color:rgb(255, 76, 29);stop-opacity:1" />
      <stop offset="100%" style="stop-color:rgb(155, 0, 99);stop-opacity:1" />
    </linearGradient>
  </defs>
  <path
     d="M 580.00001,0 H 60.000001 C 26.875001,0 0,35.833333 0,79.999999 V 560 c 0,44.16665 26.875001,80 60.000001,80 H 580.00001 C 613.12502,640 640,604.16665 640,560 V 79.999999 C 640,35.833333 613.12502,0 580.00001,0 Z"
     fill="#ffffff" />
  <path
    d="m 179.45161,433.62394 39.41878,-46.4 c 4.16844,-4.9 3.89658,-12.7 -0.72493,-17.2 l -82.09984,-79.7 82.09984,-79.7 c 4.62151,-4.5 4.98398,-12.3 0.72493,-17.2 l -39.41878,-46.4 c -4.07781,-4.8 -10.96477,-5.1 -15.40506,-0.5 l -130.580415,135 c -4.621513,4.7 -4.621513,12.8 0,17.5 l 130.580415,135.1 c 4.44029,4.6 11.32725,4.4 15.40506,-0.5 z m 296.50184,0.6 130.58042,-135.1 c 4.62151,-4.7 4.62151,-12.8 0,-17.5 l -130.58042,-135.2 c -4.34967,-4.5 -11.23663,-4.3 -15.40506,0.5 l -39.41878,46.4 c -4.16844,4.9 -3.89658,12.7 0.72493,17.2 l 82.09984,79.8 -82.09984,79.7 c -4.62151,4.5 -4.98398,12.3 -0.72493,17.2 l 39.41878,46.4 c 4.07781,4.9 10.96477,5.1 15.40506,0.6 z"
    fill="url(#grad1)"/>
  <path
    d="m 249.44995,412.8908 c -25.81945,19.1603 -44.71339,46.5922 -39.38158,97.68592 0.61267,5.82544 -1.82862,11.16809 -6.21828,13.98635 -7.40049,4.75131 -39.98602,-2.03715 -48.85009,-3.03564 28.88898,63.91894 79.54038,103.88182 139.53691,65.36272 50.53113,-32.4421 69.91073,-88.71602 43.10803,-148.03604 -1.09073,-2.41412 -2.56539,-4.44155 -3.84829,-6.67224 z M 334.70714,48.377064 c -10.09824,6.48329 -17.21027,17.768844 -21.01481,29.965191 -72.1166,229.158245 -84.78014,241.584565 -65.9285,283.307275 4.80499,10.63445 10.80034,20.75726 19.38833,26.30695 l 55.32924,12.74975 c 9.55897,1.81382 17.64818,-0.92148 22.81054,-4.23581 C 384.66403,368.15861 393.69639,317.46749 395,105.34264 394.88293,91.047528 393.78968,76.227526 388.12893,63.699066 377.98937,41.258063 353.43151,36.355619 334.70714,48.377064 Z"
    fill="url(#grad1)"/>
</svg>
