<?xml version="1.0" standalone="no"?>
<!DOCTYPE svg PUBLIC "-//W3C//DTD SVG 20010904//EN"
 "http://www.w3.org/TR/2001/REC-SVG-20010904/DTD/svg10.dtd">
<svg version="1.0" xmlns="http://www.w3.org/2000/svg"
 width="700.000000pt" height="700.000000pt" viewBox="0 0 700.000000 700.000000"
 preserveAspectRatio="xMidYMid meet">
<metadata>
Created by potrace 1.11, written by Peter Selinger 2001-2013
</metadata>
<g transform="translate(0.000000,700.000000) scale(0.100000,-0.100000)"
fill="#000000" stroke="none">
<path d="M3856 6285 c-77 -30 -147 -96 -196 -187 -31 -58 -646 -1876 -726
-2146 -66 -225 -94 -368 -94 -490 0 -160 41 -329 106 -438 71 -120 47 -108
364 -188 275 -70 287 -72 337 -61 125 29 254 120 329 232 104 158 139 373 194
1197 16 248 44 660 61 916 36 540 40 738 15 854 -32 146 -89 238 -183 293 -55
32 -149 40 -207 18z"/>
<path d="M1823 5183 c-26 -15 -1262 -1147 -1438 -1318 -55 -53 -67 -86 -53
-141 6 -22 178 -187 694 -664 775 -717 787 -728 820 -736 67 -17 82 -5 325
249 127 133 238 256 246 273 19 40 11 93 -20 125 -12 13 -219 195 -460 403
-241 209 -436 383 -435 387 2 5 201 179 443 388 242 209 450 395 463 412 24
35 28 82 9 115 -7 12 -115 130 -240 262 -258 272 -279 286 -354 245z"/>
<path d="M5075 5186 c-30 -13 -468 -467 -492 -509 -19 -34 -15 -81 10 -116 12
-17 220 -202 462 -412 242 -209 441 -384 443 -388 1 -4 -202 -184 -452 -401
-250 -216 -459 -404 -465 -417 -16 -35 -13 -74 8 -108 10 -16 120 -137 245
-267 242 -253 255 -263 327 -242 19 6 305 263 764 687 773 714 761 701 747
773 -3 16 -26 49 -52 74 -183 178 -1426 1317 -1448 1327 -35 16 -60 15 -97 -1z"/>
<path d="M2880 2556 c-77 -61 -199 -190 -247 -261 -113 -168 -159 -313 -172
-546 -7 -116 -11 -142 -32 -179 -56 -101 -172 -112 -390 -35 -175 61 -179 62
-179 39 0 -48 22 -205 37 -263 73 -294 280 -507 568 -582 105 -28 307 -31 409
-6 487 120 909 755 848 1274 -19 162 -84 325 -165 417 l-42 47 -275 69 c-151
38 -282 70 -290 70 -8 0 -40 -20 -70 -44z"/>
</g>
</svg>
