<?xml version="1.0" encoding="UTF-8" standalone="no"?>
<svg
  xmlns="http://www.w3.org/2000/svg"
  viewBox="0 0 640 640">
  <defs>
    <linearGradient
       id="grad1"
       x1="0%"
       y1="0%"
       x2="100%"
       y2="10%">
      <stop
         offset="0%"
         style="stop-color:rgb(255, 76, 29);stop-opacity:1"
         id="stop2" />
      <stop
         offset="100%"
         style="stop-color:rgb(155, 0, 99);stop-opacity:1"
         id="stop4" />
    </linearGradient>
  </defs>
  <path
    d="m 164.91213,431.92965 43.49658,-45.69571 c 4.59966,-4.82563 4.29967,-12.50724 -0.79992,-16.93893 l -90.59293,-78.49027 90.59293,-78.49027 c 5.09959,-4.43169 5.49956,-12.11331 0.79992,-16.93893 l -43.49658,-45.69572 c -4.49967,-4.72713 -12.09907,-5.02258 -16.9987,-0.49241 L 3.8247014,282.13831 c -5.0996005,4.62866 -5.0996005,12.60572 0,17.23438 L 147.91343,432.42206 c 4.89963,4.53018 12.49903,4.33322 16.9987,-0.49241 z m 327.17444,0.59089 144.08873,-133.04938 c 5.0996,-4.62865 5.0996,-12.60571 0,-17.23437 L 492.08657,149.08894 c -4.79963,-4.4317 -12.39904,-4.23474 -16.9987,0.4924 l -43.49658,45.69572 c -4.59966,4.82563 -4.29967,12.50723 0.79992,16.93893 l 90.59293,78.58875 -90.59293,78.49027 c -5.09959,4.43169 -5.49956,12.1133 -0.79992,16.93893 l 43.49658,45.69571 c 4.49967,4.82563 12.09907,5.02259 16.9987,0.59089 z"
    style="fill:url(#grad1);" />
  <path
    d="m 242.15167,411.5112 c -28.49042,18.86948 -49.33891,45.88501 -43.45554,96.20319 0.67606,5.73702 -2.01778,10.99858 -6.86155,13.77406 -8.16605,4.67919 -44.1225,-2.00623 -53.90354,-2.98956 31.8775,62.94874 87.7687,102.30504 153.97175,64.37061 55.75849,-31.94968 77.14288,-87.36944 47.56749,-145.78907 -1.20356,-2.37747 -2.83077,-4.37413 -4.24639,-6.57096 z M 336.22857,52.53027 C 325.08569,58.915152 317.23792,70.029408 313.0398,82.040631 233.46288,307.72058 219.48932,319.95829 240.29111,361.0477 c 5.30207,10.47304 11.91763,20.4422 21.39403,25.90766 l 61.05295,12.55622 c 10.54784,1.78629 19.47387,-0.90749 25.17026,-4.17152 43.44506,-27.88207 53.4118,-77.80377 54.85027,-286.70887 C 402.62945,94.553056 401.42309,79.958001 395.17675,67.619705 383.98826,45.519325 356.88994,40.691292 336.22857,52.53027 Z"
    style="fill:url(#grad1);" />
</svg>


