<?xml version="1.0" standalone="no"?>
<!DOCTYPE svg PUBLIC "-//W3C//DTD SVG 20010904//EN"
 "http://www.w3.org/TR/2001/REC-SVG-20010904/DTD/svg10.dtd">
<svg version="1.0" xmlns="http://www.w3.org/2000/svg"
 width="700.000000pt" height="700.000000pt" viewBox="0 0 700.000000 700.000000"
 preserveAspectRatio="xMidYMid meet">
<metadata>
Created by potrace 1.11, written by Peter Selinger 2001-2013
</metadata>
<g transform="translate(0.000000,700.000000) scale(0.100000,-0.100000)"
fill="#000000" stroke="none">
<path d="M3782 6525 c-117 -33 -230 -129 -294 -251 -40 -76 -39 -74 -128 -354
-84 -268 -155 -489 -313 -975 -36 -110 -88 -272 -117 -360 -28 -88 -64 -200
-80 -250 -107 -334 -176 -583 -204 -735 -20 -108 -25 -219 -14 -305 23 -171
161 -446 260 -517 29 -20 567 -153 670 -165 84 -9 175 20 253 83 170 135 271
310 344 597 31 119 61 282 75 412 33 284 46 471 61 865 4 102 9 221 10 265 10
239 12 1177 4 1230 -11 70 -39 183 -49 205 -4 8 -16 33 -26 54 -33 68 -117
150 -185 181 -76 34 -188 42 -267 20z"/>
<path d="M1721 5322 c-102 -104 -442 -456 -648 -669 -111 -116 -474 -491 -613
-633 -109 -113 -130 -143 -130 -190 1 -69 -34 -29 514 -594 132 -138 261 -271
286 -297 25 -25 151 -156 281 -290 130 -134 273 -283 319 -332 88 -92 121
-110 175 -96 37 11 24 -4 335 363 177 209 178 210 183 258 8 72 23 54 -358
423 -136 132 -322 312 -412 400 l-165 160 144 140 c80 77 272 264 428 415 155
151 296 288 313 305 55 54 67 127 31 183 -19 29 -394 470 -445 524 -32 34 -41
38 -84 38 -48 0 -48 0 -154 -108z"/>
<path d="M5068 5419 c-9 -5 -52 -51 -95 -102 -42 -50 -80 -94 -83 -97 -3 -3
-41 -48 -85 -100 -44 -52 -92 -108 -107 -125 -72 -82 -109 -133 -117 -163 -14
-49 -1 -101 33 -134 7 -7 145 -141 306 -298 162 -157 361 -350 443 -430 l149
-145 -262 -254 c-144 -140 -300 -292 -347 -337 -250 -240 -308 -301 -319 -333
-13 -38 -8 -99 10 -121 21 -25 174 -206 325 -382 198 -233 203 -234 380 -51
62 65 214 222 336 348 123 127 251 259 285 295 62 64 428 442 615 635 53 55
105 114 116 130 21 34 25 99 6 132 -7 12 -104 117 -217 234 -182 188 -374 387
-525 544 -243 252 -531 549 -626 646 -114 117 -117 119 -160 119 -24 0 -52 -5
-61 -11z"/>
<path d="M2663 2431 c-175 -146 -283 -314 -341 -530 -23 -89 -26 -114 -27
-328 -2 -217 -4 -234 -24 -266 -12 -19 -35 -40 -52 -47 -51 -22 -199 -16 -389
15 -65 11 -130 16 -130 11 0 -4 18 -41 40 -84 207 -401 460 -656 738 -746 98
-32 138 -38 237 -38 171 0 345 57 517 171 435 286 650 738 579 1211 -11 74
-13 82 -35 165 -23 90 -52 169 -87 241 -27 55 -37 65 -68 74 -38 10 -237 56
-521 120 -96 21 -213 48 -260 59 -47 12 -93 21 -102 21 -9 0 -43 -22 -75 -49z"/>
</g>
</svg>
